<?xml version="1.0" encoding="UTF-8" standalone="no"?>
<svg
   id="svg126054"
   viewBox="0 0 213.25279 30"
   height="30"
   width="213.25279"
   version="1.1"
   sodipodi:docname="attivo.svg"
   inkscape:version="1.3 (0e150ed6c4, 2023-07-21)"
   xmlns:inkscape="http://www.inkscape.org/namespaces/inkscape"
   xmlns:sodipodi="http://sodipodi.sourceforge.net/DTD/sodipodi-0.dtd"
   xmlns:xlink="http://www.w3.org/1999/xlink"
   xmlns="http://www.w3.org/2000/svg"
   xmlns:svg="http://www.w3.org/2000/svg"
   xmlns:rdf="http://www.w3.org/1999/02/22-rdf-syntax-ns#"
   xmlns:cc="http://creativecommons.org/ns#"
   xmlns:dc="http://purl.org/dc/elements/1.1/">
  <sodipodi:namedview
     id="namedview1"
     pagecolor="#ffffff"
     bordercolor="#000000"
     borderopacity="0.25"
     inkscape:showpageshadow="2"
     inkscape:pageopacity="0.0"
     inkscape:pagecheckerboard="0"
     inkscape:deskcolor="#d1d1d1"
     inkscape:zoom="1.0117188"
     inkscape:cx="285.6525"
     inkscape:cy="40.030886"
     inkscape:window-width="1920"
     inkscape:window-height="991"
     inkscape:window-x="-9"
     inkscape:window-y="-9"
     inkscape:window-maximized="1"
     inkscape:current-layer="svg126054" />
  <metadata
     id="metadata126060">
    <rdf:rdf>
      <cc:work
         rdf:about="">
        <dc:format>image/svg+xml</dc:format>
        <dc:type
           rdf:resource="http://purl.org/dc/dcmitype/StillImage" />
      </cc:work>
    </rdf:rdf>
  </metadata>
  <defs
     id="defs126058" />
  <linearGradient
     spreadMethod="pad"
     y2="0.30000001"
     x2="-0.1"
     y1="1.2"
     x1="0.30000001"
     id="3d_gradient2-logo-6e0d84fc-0742-4cd3-8cab-684d2ce0912f">
    <stop
       id="stop126035"
       stop-opacity="1"
       stop-color="#ffffff"
       offset="0%" />
    <stop
       id="stop126037"
       stop-opacity="1"
       stop-color="#000000"
       offset="100%" />
  </linearGradient>
  <linearGradient
     gradientTransform="rotate(-30)"
     spreadMethod="pad"
     y2="0.30000001"
     x2="-0.1"
     y1="1.2"
     x1="0.30000001"
     id="3d_gradient3-logo-6e0d84fc-0742-4cd3-8cab-684d2ce0912f">
    <stop
       id="stop126040"
       stop-opacity="1"
       stop-color="#ffffff"
       offset="0%" />
    <stop
       id="stop126042"
       stop-opacity="1"
       stop-color="#cccccc"
       offset="50%" />
    <stop
       id="stop126044"
       stop-opacity="1"
       stop-color="#000000"
       offset="100%" />
  </linearGradient>
  <g
     id="logo-group"
     transform="matrix(0.37358503,0,0,0.37358503,-84.649142,-128.45665)">
    <image
       xlink:href=""
       id="container"
       x="272"
       y="144"
       width="480"
       height="480"
       style="display:none" />
    <g
       id="logo-center">
      <image
         xlink:href=""
         id="icon_container"
         x="0"
         y="0"
         style="display:none" />
      <g
         id="slogan"
         style="font-style:normal;font-weight:normal;font-size:32px;line-height:1;font-family:'Brandmark Sans 25';font-variant-ligatures:none;text-align:center;text-anchor:middle" />
      <g
         id="title"
         style="font-style:normal;font-weight:normal;font-size:72px;line-height:1;font-family:'Brandmark Sans 25';font-variant-ligatures:normal;text-align:center;text-anchor:middle">
        <path
           id="path126063"
           style="font-style:normal;font-weight:normal;font-size:72px;line-height:1;font-family:'Brandmark Sans 25';font-variant-ligatures:normal;text-align:center;text-anchor:middle"
           d="m 401.34613,-2.232 -21.67201,-41.832 c -2.23199,-4.32 -6.408,-7.416 -11.23199,-7.848 -5.76001,-0.504 -11.016,2.448 -13.60801,7.488 l -21.888,42.192 c -0.504,1.008 0.216,2.232 1.368,2.232 h 8.064 c 0.576,0 1.08,-0.288 1.368,-0.792 l 20.088,-38.952 c 0.936,-1.8 2.66401,-2.016 3.312,-2.016 0.648,0 2.37601,0.216 3.312,2.016 l 20.08801,38.952 c 0.288,0.504 0.79199,0.792 1.368,0.792 h 8.06399 c 1.15201,0 1.872,-1.224 1.36801,-2.232 z"
           stroke-width="0"
           stroke-linejoin="miter"
           stroke-miterlimit="2"
           fill="#0a48b3"
           stroke="#0a48b3"
           transform="matrix(1.5,0,0,1.5,-272.58813,421.8)" />
        <path
           id="path126065"
           style="font-style:normal;font-weight:normal;font-size:72px;line-height:1;font-family:'Brandmark Sans 25';font-variant-ligatures:normal;text-align:center;text-anchor:middle"
           d="m 455.4215,-50.4 h -57.96 c -0.792,0 -1.512,0.648 -1.512,1.512 v 7.128 c 0,0.864 0.72,1.512 1.512,1.512 h 23.904 v 38.736 c 0,0.792 0.648,1.512 1.512,1.512 h 7.128 c 0.864,0 1.512,-0.72 1.512,-1.512 v -38.736 h 23.904 c 0.792,0 1.512,-0.648 1.512,-1.512 v -7.128 c 0,-0.864 -0.72,-1.512 -1.512,-1.512 z"
           stroke-width="0"
           stroke-linejoin="miter"
           stroke-miterlimit="2"
           fill="#0a48b3"
           stroke="#0a48b3"
           transform="matrix(1.5,0,0,1.5,-265.08813,421.8)" />
        <path
           id="path126067"
           style="font-style:normal;font-weight:normal;font-size:72px;line-height:1;font-family:'Brandmark Sans 25';font-variant-ligatures:normal;text-align:center;text-anchor:middle"
           d="m 472.74987,-50.4 h -7.128 c -0.79199,0 -1.512,0.648 -1.512,1.512 v 47.376 c 0,0.792 0.72001,1.512 1.512,1.512 h 7.128 c 0.864,0 1.512,-0.72 1.512,-1.512 v -47.376 c 0,-0.864 -0.648,-1.512 -1.512,-1.512 z"
           stroke-width="0"
           stroke-linejoin="miter"
           stroke-miterlimit="2"
           fill="#0a48b3"
           stroke="#0a48b3"
           transform="matrix(1.5,0,0,1.5,-257.58813,421.8)" />
        <path
           id="path126069"
           style="font-style:normal;font-weight:normal;font-size:72px;line-height:1;font-family:'Brandmark Sans 25';font-variant-ligatures:normal;text-align:center;text-anchor:middle"
           d="m 548.40612,-50.4 h -8.064 c -0.576,0 -1.08,0.288 -1.368,0.792 l -20.088,38.952 c -0.936,1.8 -2.664,2.016 -3.312,2.016 -0.648,0 -2.376,-0.216 -3.312,-2.016 l -20.088,-38.952 c -0.288,-0.504 -0.792,-0.792 -1.368,-0.792 h -8.064 c -1.152,0 -1.872,1.224 -1.368,2.232 l 21.67201,41.832 c 2.23199,4.32 6.40799,7.416 11.232,7.848 5.76,0.504 11.01599,-2.448 13.60799,-7.488 l 21.88801,-42.192 c 0.504,-1.008 -0.216,-2.232 -1.36801,-2.232 z"
           stroke-width="0"
           stroke-linejoin="miter"
           stroke-miterlimit="2"
           fill="#0a48b3"
           stroke="#0a48b3"
           transform="matrix(1.5,0,0,1.5,-250.08813,421.8)" />
        <path
           id="path126071"
           style="font-style:normal;font-weight:normal;font-size:72px;line-height:1;font-family:'Brandmark Sans 25';font-variant-ligatures:normal;text-align:center;text-anchor:middle"
           d="m 619.42175,-50.4 h -8.064 c -0.576,0 -1.08,0.288 -1.368,0.792 l -20.088,38.952 c -0.936,1.8 -2.664,2.016 -3.312,2.016 -0.648,0 -2.376,-0.216 -3.312,-2.016 l -20.088,-38.952 c -0.288,-0.504 -0.792,-0.792 -1.368,-0.792 h -8.064 c -1.152,0 -1.872,1.224 -1.368,2.232 l 21.672,41.832 c 2.232,4.32 6.408,7.416 11.232,7.848 5.76,0.504 11.016,-2.448 13.608,-7.488 l 21.888,-42.192 c 0.504,-1.008 -0.216,-2.232 -1.368,-2.232 z"
           stroke-width="0"
           stroke-linejoin="miter"
           stroke-miterlimit="2"
           fill="#0a48b3"
           stroke="#0a48b3"
           transform="matrix(1.5,0,0,1.5,-242.58813,421.8)" />
        <path
           id="path126073"
           style="font-style:normal;font-weight:normal;font-size:72px;line-height:1;font-family:'Brandmark Sans 25';font-variant-ligatures:normal;text-align:center;text-anchor:middle"
           d="m 668.24675,-50.4 h -24.408 c -11.088,0 -20.088,9 -20.088,20.088 v 10.224 c 0,11.088 9,20.088 20.088,20.088 h 24.408 c 11.088,0 20.088,-9 20.088,-20.088 v -10.224 c 0,-11.088 -9,-20.088 -20.088,-20.088 z m -34.344,30.312 v -10.224 c 0,-5.472 4.464,-9.936 9.936,-9.936 h 24.408 c 5.472,0 9.936,4.464 9.936,9.936 v 10.224 c 0,5.472 -4.464,9.936 -9.936,9.936 h -24.408 c -5.472,0 -9.936,-4.464 -9.936,-9.936 z"
           stroke-width="0"
           stroke-linejoin="miter"
           stroke-miterlimit="2"
           fill="#0a48b3"
           stroke="#0a48b3"
           transform="matrix(1.5,0,0,1.5,-235.08813,421.8)" />
      </g>
      <image
         xlink:href="https://app.brandmark.io/v3/custom_icons/preview/plaster/A.png"
         id="icon"
         x="0"
         y="0"
         style="display:none" />
    </g>
  </g>
</svg>
